<svg xmlns="http://www.w3.org/2000/svg" viewBox="0 0 512 512">
  <defs>
    <linearGradient id="bg" x1="0%" y1="0%" x2="100%" y2="100%">
      <stop offset="0%" style="stop-color:#0a0a1a"/>
      <stop offset="100%" style="stop-color:#1a0a2e"/>
    </linearGradient>
    <linearGradient id="neon1" x1="0%" y1="0%" x2="100%" y2="100%">
      <stop offset="0%" style="stop-color:#00f0ff"/>
      <stop offset="100%" style="stop-color:#8b5cf6"/>
    </linearGradient>
    <linearGradient id="neon2" x1="0%" y1="0%" x2="100%" y2="100%">
      <stop offset="0%" style="stop-color:#f43f5e"/>
      <stop offset="100%" style="stop-color:#ec4899"/>
    </linearGradient>
    <filter id="glow">
      <feGaussianBlur stdDeviation="4" result="blur"/>
      <feMerge>
        <feMergeNode in="blur"/>
        <feMergeNode in="SourceGraphic"/>
      </feMerge>
    </filter>
    <filter id="glow2">
      <feGaussianBlur stdDeviation="6" result="blur"/>
      <feMerge>
        <feMergeNode in="blur"/>
        <feMergeNode in="SourceGraphic"/>
      </feMerge>
    </filter>
  </defs>
  <rect width="512" height="512" rx="80" fill="url(#bg)"/>
  <circle cx="256" cy="230" r="130" fill="none" stroke="url(#neon1)" stroke-width="6" filter="url(#glow)" opacity="0.8"/>
  <circle cx="256" cy="230" r="95" fill="none" stroke="url(#neon1)" stroke-width="3" filter="url(#glow)" opacity="0.5"/>
  <circle cx="256" cy="230" r="60" fill="none" stroke="url(#neon1)" stroke-width="2" filter="url(#glow)" opacity="0.3"/>
  <circle cx="256" cy="230" r="12" fill="#00f0ff" filter="url(#glow2)"/>
  <line x1="256" y1="230" x2="310" y2="190" stroke="url(#neon2)" stroke-width="4" stroke-linecap="round" filter="url(#glow)"/>
  <circle cx="310" cy="190" r="8" fill="#f43f5e" filter="url(#glow)"/>
  <rect x="140" y="370" width="16" height="50" rx="4" fill="#00f0ff" filter="url(#glow)" opacity="0.9"/>
  <rect x="168" y="350" width="16" height="70" rx="4" fill="#8b5cf6" filter="url(#glow)" opacity="0.9"/>
  <rect x="196" y="360" width="16" height="60" rx="4" fill="#00f0ff" filter="url(#glow)" opacity="0.9"/>
  <rect x="224" y="340" width="16" height="80" rx="4" fill="#f43f5e" filter="url(#glow)" opacity="0.9"/>
  <rect x="252" y="330" width="16" height="90" rx="4" fill="#ec4899" filter="url(#glow)" opacity="0.9"/>
  <rect x="280" y="345" width="16" height="75" rx="4" fill="#8b5cf6" filter="url(#glow)" opacity="0.9"/>
  <rect x="308" y="355" width="16" height="65" rx="4" fill="#00f0ff" filter="url(#glow)" opacity="0.9"/>
  <rect x="336" y="365" width="16" height="55" rx="4" fill="#f43f5e" filter="url(#glow)" opacity="0.9"/>
  <rect x="364" y="375" width="16" height="45" rx="4" fill="#8b5cf6" filter="url(#glow)" opacity="0.9"/>
  <text x="256" y="470" text-anchor="middle" font-family="Arial Black, sans-serif" font-size="36" font-weight="900" fill="url(#neon1)" filter="url(#glow)">NEON AI DJ</text>
</svg>
